<svg version="1.1" xmlns="http://www.w3.org/2000/svg" xmlns:xlink="http://www.w3.org/1999/xlink" width="110.47404" height="196.99905" viewBox="0,0,110.47404,196.99905"><g transform="translate(-348.83995,-186.65259)"><g data-paper-data="{&quot;isPaintingLayer&quot;:true}" fill-rule="nonzero" stroke-linejoin="miter" stroke-miterlimit="10" stroke-dasharray="" stroke-dashoffset="0" style="mix-blend-mode: normal"><path d="M375.93815,382.65163l12.78551,-111.31778l31.9014,-0.13331l11.4608,111.4511z" fill="#000000" stroke="#ffffff" stroke-width="2" stroke-linecap="butt"/><path d="M349.83995,238.56407c0,-28.11764 24.28275,-50.91148 54.23702,-50.91148c29.95427,0 54.23702,22.79385 54.23702,50.91148c0,28.11764 -24.28275,50.91148 -54.23702,50.91148c-29.95427,0 -54.23702,-22.79385 -54.23702,-50.91148z" fill="#000000" stroke="#ffffff" stroke-width="2" stroke-linecap="butt"/><path d="M361.28075,238.92668c0,-10.94923 8.87611,-19.82534 19.82534,-19.82534c10.94923,0 19.82534,8.87611 19.82534,19.82534c0,10.94923 -8.87611,19.82534 -19.82534,19.82534c-10.94923,0 -19.82534,-8.87611 -19.82534,-19.82534z" fill="#000000" stroke="#ffffff" stroke-width="2" stroke-linecap="butt"/><path d="M367.24624,238.69396c0,-7.70708 6.24781,-13.95489 13.95489,-13.95489c7.70708,0 13.95489,6.24782 13.95489,13.95489c0,7.70708 -6.24782,13.95489 -13.95489,13.95489c-7.70708,0 -13.95489,-6.24782 -13.95489,-13.95489z" fill="#ffffff" stroke="none" stroke-width="0" stroke-linecap="butt"/><path d="M414.66453,272.17694h-21.20069" fill="none" stroke="#000000" stroke-width="2" stroke-linecap="round"/><path d="M426.91794,258.75201c-10.94923,0 -19.82534,-8.87611 -19.82534,-19.82534c0,-10.94923 8.87611,-19.82534 19.82534,-19.82534c10.94923,0 19.82534,8.87611 19.82534,19.82534c0,10.94923 -8.87611,19.82534 -19.82534,19.82534z" data-paper-data="{&quot;index&quot;:null}" fill="#000000" stroke="#ffffff" stroke-width="2" stroke-linecap="butt"/><path d="M426.82288,252.64886c-7.70707,0 -13.95489,-6.24782 -13.95489,-13.95489c0,-7.70708 6.24782,-13.95489 13.95489,-13.95489c7.70707,0 13.95489,6.24782 13.95489,13.95489c0,7.70708 -6.24782,13.95489 -13.95489,13.95489z" data-paper-data="{&quot;index&quot;:null}" fill="#ffffff" stroke="none" stroke-width="0" stroke-linecap="butt"/><path d="M371.95107,214.60293c0,0 5.66454,-4.36451 9.9607,-5.37291c4.29616,-1.0084 10.41403,0.5905 10.41403,0.5905c0,0 -6.7868,-0.0509 -10.10458,0.72787c-3.46721,0.81384 -10.27015,4.05455 -10.27015,4.05455z" fill="#000000" stroke="none" stroke-width="0" stroke-linecap="butt"/><path d="M425.93269,210.54839c-3.31778,-0.77876 -10.10458,-0.72787 -10.10458,-0.72787c0,0 6.11787,-1.5989 10.41403,-0.5905c4.29615,1.0084 9.9607,5.37291 9.9607,5.37291c0,0 -6.80294,-3.24071 -10.27015,-4.05455z" data-paper-data="{&quot;index&quot;:null}" fill="#000000" stroke="none" stroke-width="0" stroke-linecap="butt"/></g></g></svg>