<svg xmlns="http://www.w3.org/2000/svg" viewBox="0 0 57 49">
  <path xmlns="http://www.w3.org/2000/svg" d="M 4.5 48.5 C 2.291 48.5 0.5 46.709 0.5 44.5 L 0.5 4.5 C 0.5 2.291 2.291 0.5 4.5 0.5 L 53.151 0.553 C 55.083 0.872 56.5 2.542 56.5 4.5 L 56.5 12.628 C 56.5 13.928 54.316 16.011 52.623 16.011 L 38.641 16.011 C 37.536 16.011 36.984 16.563 36.431 17.116 L 34.222 19.325 C 33.67 19.877 33.117 20.43 32.012 20.43 L 25.385 20.43 C 24.28 20.43 23.728 19.877 23.175 19.325 L 20.966 17.115 C 20.414 16.563 19.861 16.011 18.756 16.011 L 14.338 16.011 C 13.118 16.011 12.128 17.001 12.128 18.221 L 12.128 30.775 C 12.128 31.995 13.118 32.983 14.338 32.983 L 18.757 32.983 C 19.861 32.983 20.414 33.536 20.967 34.088 L 23.175 36.298 C 23.728 36.85 24.28 37.402 25.385 37.402 L 32.013 37.402 C 33.117 37.402 33.67 36.85 34.222 36.297 L 36.432 34.088 C 36.984 33.536 37.536 32.983 38.641 32.983 L 52.623 32.983 C 54.316 32.983 56.5 35.087 56.5 36.485 L 56.5 44.5 C 56.5 46.709 54.709 48.5 52.5 48.5 L 4.5 48.5 Z" style="fill: rgb(255, 102, 128); stroke: rgb(255, 51, 85); stroke-width: 1;"></path>
</svg>